<svg xmlns="http://www.w3.org/2000/svg" width="1440" height="2160" viewBox="0 0 1440 2160">
  <rect width="1440" height="2160" fill="#f0fdf4"/>
  <line x1="0" y1="0" x2="0" y2="2160" stroke="#bbf7d0" stroke-width="1"/>
  <line x1="180" y1="0" x2="180" y2="2160" stroke="#bbf7d0" stroke-width="1"/>
  <line x1="360" y1="0" x2="360" y2="2160" stroke="#bbf7d0" stroke-width="1"/>
  <line x1="540" y1="0" x2="540" y2="2160" stroke="#bbf7d0" stroke-width="1"/>
  <line x1="720" y1="0" x2="720" y2="2160" stroke="#bbf7d0" stroke-width="1"/>
  <line x1="900" y1="0" x2="900" y2="2160" stroke="#bbf7d0" stroke-width="1"/>
  <line x1="1080" y1="0" x2="1080" y2="2160" stroke="#bbf7d0" stroke-width="1"/>
  <line x1="1260" y1="0" x2="1260" y2="2160" stroke="#bbf7d0" stroke-width="1"/>
  <line x1="1440" y1="0" x2="1440" y2="2160" stroke="#bbf7d0" stroke-width="1"/>
  <line x1="0" y1="0" x2="1440" y2="0" stroke="#bbf7d0" stroke-width="1"/>
  <line x1="0" y1="180" x2="1440" y2="180" stroke="#bbf7d0" stroke-width="1"/>
  <line x1="0" y1="360" x2="1440" y2="360" stroke="#bbf7d0" stroke-width="1"/>
  <line x1="0" y1="540" x2="1440" y2="540" stroke="#bbf7d0" stroke-width="1"/>
  <line x1="0" y1="720" x2="1440" y2="720" stroke="#bbf7d0" stroke-width="1"/>
  <line x1="0" y1="900" x2="1440" y2="900" stroke="#bbf7d0" stroke-width="1"/>
  <line x1="0" y1="1080" x2="1440" y2="1080" stroke="#bbf7d0" stroke-width="1"/>
  <line x1="0" y1="1260" x2="1440" y2="1260" stroke="#bbf7d0" stroke-width="1"/>
  <line x1="0" y1="1440" x2="1440" y2="1440" stroke="#bbf7d0" stroke-width="1"/>
  <line x1="0" y1="1620" x2="1440" y2="1620" stroke="#bbf7d0" stroke-width="1"/>
  <line x1="0" y1="1800" x2="1440" y2="1800" stroke="#bbf7d0" stroke-width="1"/>
  <line x1="0" y1="1980" x2="1440" y2="1980" stroke="#bbf7d0" stroke-width="1"/>
  <line x1="0" y1="2160" x2="1440" y2="2160" stroke="#bbf7d0" stroke-width="1"/>
  <text x="6" y="18" font-family="monospace" font-size="12" fill="#15803d">0,0</text>
  <text x="6" y="198" font-family="monospace" font-size="12" fill="#15803d">0,180</text>
  <text x="6" y="378" font-family="monospace" font-size="12" fill="#15803d">0,360</text>
  <text x="6" y="558" font-family="monospace" font-size="12" fill="#15803d">0,540</text>
  <text x="6" y="738" font-family="monospace" font-size="12" fill="#15803d">0,720</text>
  <text x="6" y="918" font-family="monospace" font-size="12" fill="#15803d">0,900</text>
  <text x="6" y="1098" font-family="monospace" font-size="12" fill="#15803d">0,1080</text>
  <text x="6" y="1278" font-family="monospace" font-size="12" fill="#15803d">0,1260</text>
  <text x="6" y="1458" font-family="monospace" font-size="12" fill="#15803d">0,1440</text>
  <text x="6" y="1638" font-family="monospace" font-size="12" fill="#15803d">0,1620</text>
  <text x="6" y="1818" font-family="monospace" font-size="12" fill="#15803d">0,1800</text>
  <text x="6" y="1998" font-family="monospace" font-size="12" fill="#15803d">0,1980</text>
  <text x="186" y="18" font-family="monospace" font-size="12" fill="#15803d">180,0</text>
  <text x="186" y="198" font-family="monospace" font-size="12" fill="#15803d">180,180</text>
  <text x="186" y="378" font-family="monospace" font-size="12" fill="#15803d">180,360</text>
  <text x="186" y="558" font-family="monospace" font-size="12" fill="#15803d">180,540</text>
  <text x="186" y="738" font-family="monospace" font-size="12" fill="#15803d">180,720</text>
  <text x="186" y="918" font-family="monospace" font-size="12" fill="#15803d">180,900</text>
  <text x="186" y="1098" font-family="monospace" font-size="12" fill="#15803d">180,1080</text>
  <text x="186" y="1278" font-family="monospace" font-size="12" fill="#15803d">180,1260</text>
  <text x="186" y="1458" font-family="monospace" font-size="12" fill="#15803d">180,1440</text>
  <text x="186" y="1638" font-family="monospace" font-size="12" fill="#15803d">180,1620</text>
  <text x="186" y="1818" font-family="monospace" font-size="12" fill="#15803d">180,1800</text>
  <text x="186" y="1998" font-family="monospace" font-size="12" fill="#15803d">180,1980</text>
  <text x="366" y="18" font-family="monospace" font-size="12" fill="#15803d">360,0</text>
  <text x="366" y="198" font-family="monospace" font-size="12" fill="#15803d">360,180</text>
  <text x="366" y="378" font-family="monospace" font-size="12" fill="#15803d">360,360</text>
  <text x="366" y="558" font-family="monospace" font-size="12" fill="#15803d">360,540</text>
  <text x="366" y="738" font-family="monospace" font-size="12" fill="#15803d">360,720</text>
  <text x="366" y="918" font-family="monospace" font-size="12" fill="#15803d">360,900</text>
  <text x="366" y="1098" font-family="monospace" font-size="12" fill="#15803d">360,1080</text>
  <text x="366" y="1278" font-family="monospace" font-size="12" fill="#15803d">360,1260</text>
  <text x="366" y="1458" font-family="monospace" font-size="12" fill="#15803d">360,1440</text>
  <text x="366" y="1638" font-family="monospace" font-size="12" fill="#15803d">360,1620</text>
  <text x="366" y="1818" font-family="monospace" font-size="12" fill="#15803d">360,1800</text>
  <text x="366" y="1998" font-family="monospace" font-size="12" fill="#15803d">360,1980</text>
  <text x="546" y="18" font-family="monospace" font-size="12" fill="#15803d">540,0</text>
  <text x="546" y="198" font-family="monospace" font-size="12" fill="#15803d">540,180</text>
  <text x="546" y="378" font-family="monospace" font-size="12" fill="#15803d">540,360</text>
  <text x="546" y="558" font-family="monospace" font-size="12" fill="#15803d">540,540</text>
  <text x="546" y="738" font-family="monospace" font-size="12" fill="#15803d">540,720</text>
  <text x="546" y="918" font-family="monospace" font-size="12" fill="#15803d">540,900</text>
  <text x="546" y="1098" font-family="monospace" font-size="12" fill="#15803d">540,1080</text>
  <text x="546" y="1278" font-family="monospace" font-size="12" fill="#15803d">540,1260</text>
  <text x="546" y="1458" font-family="monospace" font-size="12" fill="#15803d">540,1440</text>
  <text x="546" y="1638" font-family="monospace" font-size="12" fill="#15803d">540,1620</text>
  <text x="546" y="1818" font-family="monospace" font-size="12" fill="#15803d">540,1800</text>
  <text x="546" y="1998" font-family="monospace" font-size="12" fill="#15803d">540,1980</text>
  <text x="726" y="18" font-family="monospace" font-size="12" fill="#15803d">720,0</text>
  <text x="726" y="198" font-family="monospace" font-size="12" fill="#15803d">720,180</text>
  <text x="726" y="378" font-family="monospace" font-size="12" fill="#15803d">720,360</text>
  <text x="726" y="558" font-family="monospace" font-size="12" fill="#15803d">720,540</text>
  <text x="726" y="738" font-family="monospace" font-size="12" fill="#15803d">720,720</text>
  <text x="726" y="918" font-family="monospace" font-size="12" fill="#15803d">720,900</text>
  <text x="726" y="1098" font-family="monospace" font-size="12" fill="#15803d">720,1080</text>
  <text x="726" y="1278" font-family="monospace" font-size="12" fill="#15803d">720,1260</text>
  <text x="726" y="1458" font-family="monospace" font-size="12" fill="#15803d">720,1440</text>
  <text x="726" y="1638" font-family="monospace" font-size="12" fill="#15803d">720,1620</text>
  <text x="726" y="1818" font-family="monospace" font-size="12" fill="#15803d">720,1800</text>
  <text x="726" y="1998" font-family="monospace" font-size="12" fill="#15803d">720,1980</text>
  <text x="906" y="18" font-family="monospace" font-size="12" fill="#15803d">900,0</text>
  <text x="906" y="198" font-family="monospace" font-size="12" fill="#15803d">900,180</text>
  <text x="906" y="378" font-family="monospace" font-size="12" fill="#15803d">900,360</text>
  <text x="906" y="558" font-family="monospace" font-size="12" fill="#15803d">900,540</text>
  <text x="906" y="738" font-family="monospace" font-size="12" fill="#15803d">900,720</text>
  <text x="906" y="918" font-family="monospace" font-size="12" fill="#15803d">900,900</text>
  <text x="906" y="1098" font-family="monospace" font-size="12" fill="#15803d">900,1080</text>
  <text x="906" y="1278" font-family="monospace" font-size="12" fill="#15803d">900,1260</text>
  <text x="906" y="1458" font-family="monospace" font-size="12" fill="#15803d">900,1440</text>
  <text x="906" y="1638" font-family="monospace" font-size="12" fill="#15803d">900,1620</text>
  <text x="906" y="1818" font-family="monospace" font-size="12" fill="#15803d">900,1800</text>
  <text x="906" y="1998" font-family="monospace" font-size="12" fill="#15803d">900,1980</text>
  <text x="1086" y="18" font-family="monospace" font-size="12" fill="#15803d">1080,0</text>
  <text x="1086" y="198" font-family="monospace" font-size="12" fill="#15803d">1080,180</text>
  <text x="1086" y="378" font-family="monospace" font-size="12" fill="#15803d">1080,360</text>
  <text x="1086" y="558" font-family="monospace" font-size="12" fill="#15803d">1080,540</text>
  <text x="1086" y="738" font-family="monospace" font-size="12" fill="#15803d">1080,720</text>
  <text x="1086" y="918" font-family="monospace" font-size="12" fill="#15803d">1080,900</text>
  <text x="1086" y="1098" font-family="monospace" font-size="12" fill="#15803d">1080,1080</text>
  <text x="1086" y="1278" font-family="monospace" font-size="12" fill="#15803d">1080,1260</text>
  <text x="1086" y="1458" font-family="monospace" font-size="12" fill="#15803d">1080,1440</text>
  <text x="1086" y="1638" font-family="monospace" font-size="12" fill="#15803d">1080,1620</text>
  <text x="1086" y="1818" font-family="monospace" font-size="12" fill="#15803d">1080,1800</text>
  <text x="1086" y="1998" font-family="monospace" font-size="12" fill="#15803d">1080,1980</text>
  <text x="1266" y="18" font-family="monospace" font-size="12" fill="#15803d">1260,0</text>
  <text x="1266" y="198" font-family="monospace" font-size="12" fill="#15803d">1260,180</text>
  <text x="1266" y="378" font-family="monospace" font-size="12" fill="#15803d">1260,360</text>
  <text x="1266" y="558" font-family="monospace" font-size="12" fill="#15803d">1260,540</text>
  <text x="1266" y="738" font-family="monospace" font-size="12" fill="#15803d">1260,720</text>
  <text x="1266" y="918" font-family="monospace" font-size="12" fill="#15803d">1260,900</text>
  <text x="1266" y="1098" font-family="monospace" font-size="12" fill="#15803d">1260,1080</text>
  <text x="1266" y="1278" font-family="monospace" font-size="12" fill="#15803d">1260,1260</text>
  <text x="1266" y="1458" font-family="monospace" font-size="12" fill="#15803d">1260,1440</text>
  <text x="1266" y="1638" font-family="monospace" font-size="12" fill="#15803d">1260,1620</text>
  <text x="1266" y="1818" font-family="monospace" font-size="12" fill="#15803d">1260,1800</text>
  <text x="1266" y="1998" font-family="monospace" font-size="12" fill="#15803d">1260,1980</text>
  <rect x="0" y="0" width="1440" height="60" fill="#111827"/>
  <text x="16" y="38" font-family="sans-serif" font-size="28" fill="#ffffff">1440x2160</text>
</svg>